<?xml version="1.0" encoding="utf-8"?>
<!-- Generator: Adobe Illustrator 28.0.0, SVG Export Plug-In . SVG Version: 6.00 Build 0)  -->
<svg version="1.1" id="Capa_1" xmlns="http://www.w3.org/2000/svg" xmlns:xlink="http://www.w3.org/1999/xlink" x="0px" y="0px"
	 viewBox="0 0 410 404" style="enable-background:new 0 0 410 404;" xml:space="preserve">
<path d="M148.4,18.7l76.2,220h22.9v5.8h-95.2v-5.8h27.6L124.1,65.9L63.7,238.7H95v5.8H29.9v-5.8H57l77.5-220H148.4z M83.9,175.5
	v-5.8h92.7v5.8H83.9z"/>
<path d="M275.1,385.3c-19.5,0-36.4-4.5-50.7-13.5c-14.3-9-25.4-21.4-33.2-37.2c-7.8-15.8-11.7-33.8-11.7-54c0-20.2,3.9-38.2,11.7-54
	c7.8-15.8,18.8-28.2,33.2-37.2c14.3-9,31.2-13.5,50.7-13.5c8.6,0,16.7,1.5,24.3,4.4c7.6,2.9,14.4,7.1,20.4,12.6l18.6-14.3h4.8v58.2
	h-5.6c-2.3-11-6.3-20.5-12-28.7c-5.7-8.2-12.7-14.5-20.9-19c-8.2-4.5-17.2-6.7-26.9-6.7c-10.8,0-19.8,2.8-27.2,8.3
	c-7.3,5.5-13.2,13-17.7,22.3c-4.4,9.3-7.6,19.8-9.6,31.5c-1.9,11.7-2.9,23.7-2.9,36s1,24.3,2.9,36c1.9,11.7,5.1,22.2,9.6,31.5
	c4.4,9.3,10.3,16.8,17.7,22.3c7.3,5.5,16.4,8.3,27.2,8.3c9,0,17-1.4,24-4.2c7-2.8,13.1-6.7,18.3-11.6c5.2-4.9,9.5-10.7,12.8-17.3
	c3.4-6.6,5.8-13.7,7.3-21.2h5.6v58.2h-4.8l-17.3-15.1c-6.1,5.5-13.3,9.9-21.5,13C294.1,383.8,285,385.3,275.1,385.3z"/>
</svg>
